REM DIRINDEX 1\2,1\3,1\4,1\5
REM DIRNAME folder01,folder02,folder03,folder04,folder05
TITLE ""
FILE "P1Q_t_0272-0281.mp3" MP3
  TRACK 01 AUDIO
    TITLE "3:cjc005_1717"
    INDEX 01 00:00:00
  TRACK 02 AUDIO
    TITLE "0:"
    INDEX 01 00:01:03
  TRACK 03 AUDIO
    TITLE "4:cjc005_1718"
    INDEX 01 00:01:24
  TRACK 04 AUDIO
    TITLE "0:"
    INDEX 01 00:02:16
  TRACK 05 AUDIO
    TITLE "5:cjc005_1719"
    INDEX 01 00:02:42
  TRACK 06 AUDIO
    TITLE "0:"
    INDEX 01 00:06:49
  TRACK 07 AUDIO
    TITLE "3:cjc005_1720"
    INDEX 01 00:07:33
  TRACK 08 AUDIO
    TITLE "0:"
    INDEX 01 00:08:52
  TRACK 09 AUDIO
    TITLE "4:cjc005_1721"
    INDEX 01 00:08:70
  TRACK 10 AUDIO
    TITLE "0:"
    INDEX 01 00:10:08
  TRACK 11 AUDIO
    TITLE "5:cjc005_1722"
    INDEX 01 00:10:37
  TRACK 12 AUDIO
    TITLE "0:"
    INDEX 01 00:14:39
  TRACK 13 AUDIO
    TITLE "3:cjc005_1723"
    INDEX 01 00:15:17
  TRACK 14 AUDIO
    TITLE "0:"
    INDEX 01 00:16:51
  TRACK 15 AUDIO
    TITLE "4:cjc005_1724"
    INDEX 01 00:16:73
  TRACK 16 AUDIO
    TITLE "0:"
    INDEX 01 00:18:11
  TRACK 17 AUDIO
    TITLE "5:cjc005_1725"
    INDEX 01 00:18:33
  TRACK 18 AUDIO
    TITLE "0:"
    INDEX 01 00:22:30
  TRACK 19 AUDIO
    TITLE "3:cjc005_1726"
    INDEX 01 00:23:10
  TRACK 20 AUDIO
    TITLE "0:"
    INDEX 01 00:24:37
  TRACK 21 AUDIO
    TITLE "4:cjc005_1727"
    INDEX 01 00:24:65
  TRACK 22 AUDIO
    TITLE "0:"
    INDEX 01 00:25:72
  TRACK 23 AUDIO
    TITLE "5:cjc005_1728"
    INDEX 01 00:26:22
  TRACK 24 AUDIO
    TITLE "0:"
    INDEX 01 00:30:59
  TRACK 25 AUDIO
    TITLE "3:cjc005_1729"
    INDEX 01 00:31:37
  TRACK 26 AUDIO
    TITLE "0:"
    INDEX 01 00:32:43
  TRACK 27 AUDIO
    TITLE "4:cjc005_1730"
    INDEX 01 00:32:74
  TRACK 28 AUDIO
    TITLE "0:"
    INDEX 01 00:34:04
  TRACK 29 AUDIO
    TITLE "5:cjc005_1731"
    INDEX 01 00:34:26
  TRACK 30 AUDIO
    TITLE "0:"
    INDEX 01 00:37:36
  TRACK 31 AUDIO
    TITLE "3:cjc005_1732"
    INDEX 01 00:38:08
  TRACK 32 AUDIO
    TITLE "0:"
    INDEX 01 00:39:27
  TRACK 33 AUDIO
    TITLE "4:cjc005_1733"
    INDEX 01 00:39:51
  TRACK 34 AUDIO
    TITLE "0:"
    INDEX 01 00:40:73
  TRACK 35 AUDIO
    TITLE "5:cjc005_1734"
    INDEX 01 00:41:20
  TRACK 36 AUDIO
    TITLE "0:"
    INDEX 01 00:45:30
  TRACK 37 AUDIO
    TITLE "3:cjc005_1735"
    INDEX 01 00:46:09
  TRACK 38 AUDIO
    TITLE "0:"
    INDEX 01 00:47:23
  TRACK 39 AUDIO
    TITLE "4:cjc005_1736"
    INDEX 01 00:47:44
  TRACK 40 AUDIO
    TITLE "0:"
    INDEX 01 00:48:55
  TRACK 41 AUDIO
    TITLE "5:cjc005_1737"
    INDEX 01 00:49:00
  TRACK 42 AUDIO
    TITLE "0:"
    INDEX 01 00:54:01
  TRACK 43 AUDIO
    TITLE "3:cjc005_1738"
    INDEX 01 00:54:54
  TRACK 44 AUDIO
    TITLE "0:"
    INDEX 01 00:55:73
  TRACK 45 AUDIO
    TITLE "4:cjc005_1739"
    INDEX 01 00:56:22
  TRACK 46 AUDIO
    TITLE "0:"
    INDEX 01 00:57:31
  TRACK 47 AUDIO
    TITLE "5:cjc005_1740"
    INDEX 01 00:57:54
  TRACK 48 AUDIO
    TITLE "0:"
    INDEX 01 01:02:32
  TRACK 49 AUDIO
    TITLE "3:cjc005_1741"
    INDEX 01 01:03:02
  TRACK 50 AUDIO
    TITLE "0:"
    INDEX 01 01:04:29
  TRACK 51 AUDIO
    TITLE "4:cjc005_1742"
    INDEX 01 01:04:48
  TRACK 52 AUDIO
    TITLE "0:"
    INDEX 01 01:05:58
  TRACK 53 AUDIO
    TITLE "5:cjc005_1743"
    INDEX 01 01:06:10
  TRACK 54 AUDIO
    TITLE "0:"
    INDEX 01 01:10:04
  TRACK 55 AUDIO
    TITLE "3:cjc005_1744"
    INDEX 01 01:10:53
  TRACK 56 AUDIO
    TITLE "0:"
    INDEX 01 01:11:62
  TRACK 57 AUDIO
    TITLE "4:cjc005_1745"
    INDEX 01 01:12:23
  TRACK 58 AUDIO
    TITLE "0:"
    INDEX 01 01:13:55
  TRACK 59 AUDIO
    TITLE "5:cjc005_1746"
    INDEX 01 01:14:04
  TRACK 60 AUDIO
    TITLE "0:"
    INDEX 01 01:18:62
